<mxfile host="Electron" modified="2024-12-13T01:33:40.765Z" agent="Mozilla/5.0 (Windows NT 10.0; Win64; x64) AppleWebKit/537.36 (KHTML, like Gecko) draw.io/22.1.2 Chrome/114.0.5735.289 Electron/25.9.4 Safari/537.36" etag="lPTmQPSTOvnF2-Nx2HYF" version="22.1.2" type="device">
  <diagram name="Page-1" id="pztBJz1NQkuJ3yCWBad3">
    <mxGraphModel dx="1478" dy="876" grid="0" gridSize="10" guides="1" tooltips="1" connect="1" arrows="1" fold="1" page="1" pageScale="1" pageWidth="827" pageHeight="1169" math="0" shadow="0">
      <root>
        <mxCell id="0" />
        <mxCell id="1" parent="0" />
        <mxCell id="MjnQcqyXneTEiEvd6MXy-3" value="" style="edgeStyle=orthogonalEdgeStyle;rounded=0;orthogonalLoop=1;jettySize=auto;html=1;" edge="1" parent="1" source="MjnQcqyXneTEiEvd6MXy-1" target="MjnQcqyXneTEiEvd6MXy-2">
          <mxGeometry relative="1" as="geometry" />
        </mxCell>
        <mxCell id="MjnQcqyXneTEiEvd6MXy-1" value="Frontend" style="rounded=1;whiteSpace=wrap;html=1;" vertex="1" parent="1">
          <mxGeometry x="310" y="480" width="120" height="60" as="geometry" />
        </mxCell>
        <mxCell id="MjnQcqyXneTEiEvd6MXy-5" value="Backend&lt;br&gt;&lt;br&gt;&lt;br&gt;&lt;br&gt;&lt;br&gt;&lt;br&gt;&lt;br&gt;&lt;br&gt;&lt;br&gt;&lt;br&gt;&lt;br&gt;&lt;br&gt;&lt;br&gt;&lt;br&gt;&lt;br&gt;&lt;br&gt;&lt;br&gt;&lt;br&gt;&lt;br&gt;" style="rounded=0;whiteSpace=wrap;html=1;fillColor=none;align=left;" vertex="1" parent="1">
          <mxGeometry x="260" y="590" width="220" height="280" as="geometry" />
        </mxCell>
        <mxCell id="MjnQcqyXneTEiEvd6MXy-7" value="" style="edgeStyle=orthogonalEdgeStyle;rounded=0;orthogonalLoop=1;jettySize=auto;html=1;" edge="1" parent="1" source="MjnQcqyXneTEiEvd6MXy-2" target="MjnQcqyXneTEiEvd6MXy-6">
          <mxGeometry relative="1" as="geometry" />
        </mxCell>
        <mxCell id="MjnQcqyXneTEiEvd6MXy-2" value="Handler" style="whiteSpace=wrap;html=1;rounded=1;" vertex="1" parent="1">
          <mxGeometry x="310" y="620" width="120" height="60" as="geometry" />
        </mxCell>
        <mxCell id="MjnQcqyXneTEiEvd6MXy-9" value="" style="edgeStyle=orthogonalEdgeStyle;rounded=0;orthogonalLoop=1;jettySize=auto;html=1;" edge="1" parent="1" source="MjnQcqyXneTEiEvd6MXy-6" target="MjnQcqyXneTEiEvd6MXy-8">
          <mxGeometry relative="1" as="geometry" />
        </mxCell>
        <mxCell id="MjnQcqyXneTEiEvd6MXy-6" value="Service" style="whiteSpace=wrap;html=1;rounded=1;" vertex="1" parent="1">
          <mxGeometry x="310" y="700" width="120" height="60" as="geometry" />
        </mxCell>
        <mxCell id="MjnQcqyXneTEiEvd6MXy-11" value="" style="edgeStyle=orthogonalEdgeStyle;rounded=0;orthogonalLoop=1;jettySize=auto;html=1;" edge="1" parent="1" source="MjnQcqyXneTEiEvd6MXy-8" target="MjnQcqyXneTEiEvd6MXy-10">
          <mxGeometry relative="1" as="geometry" />
        </mxCell>
        <mxCell id="MjnQcqyXneTEiEvd6MXy-12" value="Docker App Container&lt;br&gt;&lt;br&gt;&lt;br&gt;&lt;br&gt;&lt;br&gt;&lt;br&gt;&lt;br&gt;&lt;br&gt;&lt;br&gt;&lt;br&gt;&lt;br&gt;&lt;br&gt;&lt;br&gt;&lt;br&gt;&lt;br&gt;&lt;br&gt;&lt;br&gt;&lt;br&gt;&lt;br&gt;&lt;br&gt;&lt;br&gt;&lt;br&gt;&lt;br&gt;&lt;br&gt;&lt;br&gt;&lt;br&gt;&lt;br&gt;&lt;br&gt;&lt;br&gt;&lt;br&gt;" style="rounded=0;whiteSpace=wrap;html=1;fillColor=none;align=left;" vertex="1" parent="1">
          <mxGeometry x="190" y="460" width="360" height="430" as="geometry" />
        </mxCell>
        <mxCell id="MjnQcqyXneTEiEvd6MXy-8" value="Controller" style="whiteSpace=wrap;html=1;rounded=1;" vertex="1" parent="1">
          <mxGeometry x="310" y="780" width="120" height="60" as="geometry" />
        </mxCell>
        <mxCell id="MjnQcqyXneTEiEvd6MXy-10" value="Docker&amp;nbsp;PostgreSQL Container" style="whiteSpace=wrap;html=1;rounded=1;" vertex="1" parent="1">
          <mxGeometry x="250" y="910" width="240" height="80" as="geometry" />
        </mxCell>
      </root>
    </mxGraphModel>
  </diagram>
</mxfile>
